<svg width="480pt" height="290pt" viewBox="0 0 480 290" version="1.1" xmlns="http://www.w3.org/2000/svg" xmlns:xlink="http://www.w3.org/1999/xlink">
  <g id="surface2">
    <path style=" stroke:none;fill-rule:evenodd;fill:rgb(55.686152%,74.901796%,19.999956%);fill-opacity:1;" d="M 22.449219 146.351562 C 24.214844 155.785156 26.617188 163.683594 29.648438 170.050781 C 32.714844 176.417969 36.285156 181.550781 40.351562 185.449219 C 44.417969 189.382812 48.851562 192.398438 53.648438 194.500000 C 58.484375 196.632812 63.535156 198.167969 68.800781 199.101562 C 74.101562 200.035156 79.500000 200.683594 85.000000 201.050781 C 90.464844 201.449219 95.917969 201.882812 101.351562 202.351562 C 106.785156 202.816406 112.035156 203.632812 117.101562 204.800781 C 122.167969 205.964844 126.933594 207.816406 131.398438 210.351562 C 135.867188 212.882812 139.898438 216.398438 143.500000 220.898438 C 140.699219 212.832031 137.582031 206.148438 134.148438 200.851562 C 130.683594 195.515625 126.917969 191.214844 122.851562 187.949219 C 118.816406 184.683594 114.484375 182.101562 109.851562 180.199219 C 105.214844 178.300781 100.316406 176.750000 95.148438 175.550781 C 89.984375 174.316406 84.582031 173.082031 78.949219 171.851562 C 73.285156 170.648438 67.417969 169.082031 61.351562 167.148438 C 55.250000 165.214844 48.949219 162.617188 42.449219 159.351562 C 35.984375 156.050781 29.316406 151.714844 22.449219 146.351562 "/>
    <path style=" stroke:none;fill-rule:evenodd;fill:rgb(10.588212%,44.705784%,38.823444%);fill-opacity:1;" d="M 37.500000 104.250000 C 37.933594 113.183594 39.117188 120.765625 41.050781 127.000000 C 42.949219 133.234375 45.449219 138.398438 48.550781 142.500000 C 51.683594 146.632812 55.250000 149.984375 59.250000 152.550781 C 63.250000 155.148438 67.550781 157.265625 72.148438 158.898438 C 76.785156 160.535156 81.550781 161.964844 86.449219 163.199219 C 91.382812 164.464844 96.332031 165.816406 101.300781 167.250000 C 106.265625 168.683594 111.101562 170.500000 115.800781 172.699219 C 120.535156 174.898438 124.964844 177.785156 129.101562 181.351562 C 133.265625 184.882812 137.015625 189.382812 140.351562 194.851562 C 139.214844 185.449219 137.367188 177.433594 134.800781 170.800781 C 132.234375 164.199219 129.117188 158.683594 125.449219 154.250000 C 121.750000 149.816406 117.648438 146.132812 113.148438 143.199219 C 108.617188 140.300781 103.816406 137.832031 98.750000 135.800781 C 93.683594 133.800781 88.484375 131.917969 83.148438 130.148438 C 77.816406 128.351562 72.484375 126.382812 67.148438 124.250000 C 61.851562 122.082031 56.683594 119.417969 51.648438 116.250000 C 46.648438 113.082031 41.933594 109.082031 37.500000 104.250000 "/>
    <path style=" stroke:none;fill-rule:evenodd;fill:rgb(36.470508%,20.784268%,32.548948%);fill-opacity:1;" d="M 71.601562 69.699219 C 70.632812 77.601562 70.582031 84.417969 71.449219 90.148438 C 72.351562 95.882812 73.949219 100.765625 76.250000 104.800781 C 78.550781 108.832031 81.351562 112.300781 84.648438 115.199219 C 87.949219 118.066406 91.535156 120.617188 95.398438 122.851562 C 99.265625 125.082031 103.214844 127.265625 107.250000 129.398438 C 111.285156 131.500000 115.199219 133.816406 119.000000 136.351562 C 122.765625 138.851562 126.199219 141.816406 129.300781 145.250000 C 132.367188 148.683594 134.898438 152.832031 136.898438 157.699219 C 136.734375 148.867188 135.765625 141.234375 134.000000 134.800781 C 132.199219 128.398438 129.800781 122.898438 126.800781 118.300781 C 123.832031 113.734375 120.464844 109.785156 116.699219 106.449219 C 112.898438 103.117188 108.933594 100.101562 104.800781 97.398438 C 100.667969 94.734375 96.566406 92.082031 92.500000 89.449219 C 88.433594 86.851562 84.601562 83.964844 81.000000 80.800781 C 77.433594 77.667969 74.300781 73.964844 71.601562 69.699219 "/>
  </g>
  <g id="surface4">
    <text style="fill:rgb(0,102,102)" font-family="Helvetica" font-size="44" transform="matrix(1,0,0,1,152.1,166.65)"><![CDATA[Longvity Center ®]]></text>
    <text style="fill:rgb(27,114,99)" font-family="Helvetica" font-size="24" transform="matrix(1,0,0,1,154.6,203.45000000000002)"><![CDATA[5000 Jahre Kultur des Heilens]]></text>
  </g>
</svg>
